<svg width="343" height="388" viewBox="0 0 343 388" fill="none" xmlns="http://www.w3.org/2000/svg">
<path d="M194.683 43.4717C185.058 54.9504 210.223 82.809 210.223 82.809C210.223 82.809 159.264 92.3165 163.308 91.7404C167.351 91.1642 165.256 43.7345 165.256 43.7345C165.256 43.7345 204.308 31.9931 194.683 43.4717Z" fill="#A07F61"/>
<path d="M230.955 174.399L186.679 199.427L162.633 214.675C162.633 214.675 134.288 254.18 129 277.592C123.712 301.004 151.898 344.276 155.089 348.747C156.735 351.026 158.209 353.452 159.495 356C160.596 357.813 170.118 355.471 180.515 353.005C190.912 350.538 179.135 333.498 179.135 333.498C179.135 333.498 165.865 295.983 164.876 295.138C163.953 294.35 160.813 287.863 163.072 285.023C165.19 282.515 166.826 279.557 167.88 276.329C168.755 273.552 170.001 270.937 171.577 268.569C171.577 268.569 196.49 244.255 209 232C215.614 225.521 225.543 212.941 234.5 220C242.5 224.423 265 241.5 265 241.5C265 241.5 249.428 284 245.5 288.5C241.572 293 237.222 299.372 239 307C240.778 314.628 262 307 262 307L281.249 277.57C281.249 277.57 290.949 261.571 298.5 227C296.5 214.5 290.702 205 275.5 197C266.961 192.506 247.041 165.178 234.5 167.5L230.955 174.399Z" fill="#2F2E41"/>
<path d="M66.8417 101.915L13.9865 83.8322C13.9865 83.8322 -7.36511 53.3794 2.69368 48.0054C12.7525 42.6314 25.3458 74.3323 25.3458 74.3323L62.1573 76.968L66.8417 101.915Z" fill="#A07F61"/>
<path d="M289.036 70.2524L336.025 37.9423C336.025 37.9423 349.707 2.49727 338.746 0.11858C327.785 -2.26012 322.861 31.9369 322.861 31.9369L287.855 44.8065L289.036 70.2524Z" fill="#A07F61"/>
<path d="M297.83 33.7224L298.726 72.016L219.525 87.6738C231.175 115.252 226.177 147.243 255.5 161L158.702 213.885C163.106 171.833 144.735 140.158 127.563 100.778C106.647 92.3891 82.3536 98.54 56.6206 110.887L51.996 71.1549L161.389 62.4627L179.358 70.0638L198.625 61.0973C226.942 51.7881 267.6 34.0894 297.83 33.7224Z" fill="#3E78B2"/>
<path d="M239.514 302.462C236.831 304.442 232.134 323.025 231.148 329.863C230.163 336.701 238.081 339.541 242.49 340.468C246.899 341.396 245.971 344.332 248.581 347.229C251.192 350.127 260.909 350.997 274.221 347.926C287.534 344.854 268.346 326.532 266.591 325.575C264.836 324.619 259.86 302.24 259.86 302.24C259.86 302.24 242.196 300.482 239.514 302.462Z" fill="#2F2E41"/>
<path d="M178.541 337.213C181.394 338.777 187.916 356.566 189.582 363.224C191.247 369.883 183.703 373.914 179.436 375.507C175.17 377.1 176.384 379.882 174.095 383.164C171.806 386.446 162.285 388.788 148.809 387.752C135.333 386.717 152.458 365.559 154.097 364.34C155.736 363.122 158.397 340.084 158.397 340.084C158.397 340.084 175.688 335.649 178.541 337.213Z" fill="#2F2E41"/>
<path d="M178.632 58.0634C190.334 58.0634 199.821 47.5662 199.821 34.6173C199.821 21.6684 190.334 11.1712 178.632 11.1712C166.929 11.1712 157.442 21.6684 157.442 34.6173C157.442 47.5662 166.929 58.0634 178.632 58.0634Z" fill="#A07F61"/>
<path d="M154.139 32.2656C152.869 29.4646 152.148 26.3991 152.021 23.269C151.894 20.1388 152.365 17.0142 153.402 14.0988C155.485 8.4167 160.106 2.71012 170.068 1.00577C191.804 -2.71276 203.371 14.1334 202.764 19.6432C202.156 25.1531 199.238 38.4723 199.238 38.4723C199.238 38.4723 200.541 25.8618 194.947 25.4164C189.353 24.971 167.659 23.0925 162.166 29.4664C160.589 31.1976 159.455 33.3601 158.88 35.7338C158.304 38.1075 158.307 40.6075 158.889 42.9793L154.139 32.2656Z" fill="#2F2E41"/>
</svg>
