<svg width="65" height="65" viewBox="0 0 65 65" fill="none" xmlns="http://www.w3.org/2000/svg">
<path d="M32.5 5.41663C17.55 5.41663 5.41667 17.55 5.41667 32.5C5.41667 47.45 17.55 59.5833 32.5 59.5833H46.0417V54.1666H32.5C20.7458 54.1666 10.8333 44.2541 10.8333 32.5C10.8333 20.7458 20.7458 10.8333 32.5 10.8333C44.2542 10.8333 54.1667 20.7458 54.1667 32.5V36.3729C54.1667 38.5125 52.2438 40.625 50.1042 40.625C47.9646 40.625 46.0417 38.5125 46.0417 36.3729V32.5C46.0417 25.025 39.975 18.9583 32.5 18.9583C25.025 18.9583 18.9583 25.025 18.9583 32.5C18.9583 39.975 25.025 46.0416 32.5 46.0416C36.2375 46.0416 39.65 44.525 42.0875 42.0604C43.8479 44.4708 46.8813 46.0416 50.1042 46.0416C55.4396 46.0416 59.5833 41.7083 59.5833 36.3729V32.5C59.5833 17.55 47.45 5.41663 32.5 5.41663ZM32.5 40.625C28.0042 40.625 24.375 36.9958 24.375 32.5C24.375 28.0041 28.0042 24.375 32.5 24.375C36.9958 24.375 40.625 28.0041 40.625 32.5C40.625 36.9958 36.9958 40.625 32.5 40.625Z" fill="white"/>
</svg>
