<svg width="100" height="100" viewBox="0 0 100 100" fill="none" xmlns="http://www.w3.org/2000/svg">
<path d="M30.7291 69.9198L35.9374 63.4115L19.1708 49.999L35.9374 36.5865L30.7291 30.0781L9.89576 46.7448C9.40762 47.1351 9.01354 47.6303 8.74273 48.1936C8.47192 48.7569 8.33131 49.3739 8.33131 49.999C8.33131 50.624 8.47192 51.241 8.74273 51.8043C9.01354 52.3676 9.40762 52.8628 9.89576 53.2531L30.7291 69.9198ZM69.2708 30.0781L64.0624 36.5865L80.8291 49.999L64.0624 63.4115L69.2708 69.9198L90.1041 53.2531C90.5922 52.8628 90.9863 52.3676 91.2571 51.8043C91.5279 51.241 91.6685 50.624 91.6685 49.999C91.6685 49.3739 91.5279 48.7569 91.2571 48.1936C90.9863 47.6303 90.5922 47.1351 90.1041 46.7448L69.2708 30.0781Z" fill="white"/>
<path d="M62.4003 13.3972L45.7336 88.3972L37.5961 86.5889L54.2628 11.5889L62.4003 13.3972Z" fill="white"/>
</svg>
