<svg width="65" height="63" viewBox="0 0 65 63" fill="none" xmlns="http://www.w3.org/2000/svg">
<path d="M54.1937 40.0948C50.8625 40.0948 47.6396 39.5734 44.6333 38.6349C43.6854 38.322 42.6292 38.5567 41.8979 39.2605L37.6458 44.3962C29.9812 40.8769 22.8042 34.2291 18.9854 26.5908L24.2667 22.2633C24.9979 21.5333 25.2146 20.5166 24.9167 19.6042C23.9146 16.7105 23.4 13.6082 23.4 10.4017C23.4 8.99393 22.1812 7.8208 20.7188 7.8208H11.3479C9.88542 7.8208 8.125 8.44647 8.125 10.4017C8.125 34.6202 29.0604 54.7458 54.1937 54.7458C56.1167 54.7458 56.875 53.1034 56.875 51.6696V42.6756C56.875 41.2679 55.6562 40.0948 54.1937 40.0948Z" fill="white"/>
</svg>
