<svg width="26" height="24" viewBox="0 0 26 24" fill="none" xmlns="http://www.w3.org/2000/svg">
<path d="M12.9898 1.78828C6.71074 1.78594 1.625 6.47812 1.625 12.2695C1.625 16.8492 4.80645 20.7422 9.23711 22.1719C9.83379 22.3102 9.74238 21.9187 9.74238 21.6516V19.8352C6.29688 20.2078 6.15723 18.1031 5.92617 17.7516C5.45898 17.0156 4.35449 16.8281 4.68457 16.4766C5.46914 16.1039 6.26895 16.5703 7.1957 17.8336C7.86602 18.75 9.17363 18.5953 9.83633 18.443C9.98105 17.8922 10.2908 17.4 10.7174 17.018C7.14746 16.4273 5.65957 14.4164 5.65957 12.0258C5.65957 10.8656 6.07344 9.79922 6.88594 8.93906C6.36797 7.52109 6.93418 6.30703 7.01035 6.12656C8.48555 6.00469 10.0191 7.10156 10.1385 7.18828C10.9764 6.97969 11.9336 6.86953 13.0051 6.86953C14.0816 6.86953 15.0414 6.98437 15.8869 7.19531C16.1738 6.99375 17.5957 6.05156 18.9668 6.16641C19.0404 6.34687 19.5939 7.53281 19.1064 8.93203C19.9291 9.79453 20.348 10.8703 20.348 12.0328C20.348 14.4281 18.85 16.4414 15.2699 17.0227C15.5766 17.301 15.82 17.633 15.9861 17.9992C16.1522 18.3654 16.2376 18.7585 16.2373 19.1555V21.7922C16.2576 22.0031 16.2373 22.2117 16.6182 22.2117C21.1148 20.8125 24.3521 16.8914 24.3521 12.2719C24.3521 6.47812 19.2639 1.78828 12.9898 1.78828Z" fill="#F4FAFF"/>
</svg>
