<svg width="84" height="81" viewBox="0 0 84 81" fill="none" xmlns="http://www.w3.org/2000/svg">
<path d="M77 10.125H7V30.375H10.5V67.5C10.5 69.2902 11.2375 71.0071 12.5503 72.273C13.863 73.5388 15.6435 74.25 17.5 74.25H66.5C68.3565 74.25 70.137 73.5388 71.4497 72.273C72.7625 71.0071 73.5 69.2902 73.5 67.5V30.375H77V10.125ZM14 16.875H70V23.625H14V16.875ZM66.5 67.5H17.5V30.375H66.5V67.5ZM31.5 37.125H52.5C52.5 38.9152 51.7625 40.6321 50.4497 41.898C49.137 43.1638 47.3565 43.875 45.5 43.875H38.5C36.6435 43.875 34.863 43.1638 33.5503 41.898C32.2375 40.6321 31.5 38.9152 31.5 37.125Z" fill="#F4FAFF"/>
</svg>
