<svg width="71" height="35" viewBox="0 0 71 35" fill="none" xmlns="http://www.w3.org/2000/svg">
<path d="M7.01537 23.1433H17.4076V26.5518H2.12109V5.95914H7.01537V23.1433ZM38.6979 16.7222C38.6979 18.7494 38.2845 20.5267 37.4579 22.0542C36.6314 23.5817 35.4459 24.7603 33.9014 25.59C32.3679 26.4198 30.606 26.8347 28.6156 26.8347C26.6469 26.8347 24.8905 26.4245 23.3461 25.6042C21.8016 24.7839 20.6053 23.6147 19.7569 22.0967C18.9086 20.5692 18.479 18.8154 18.468 16.8353V15.817C18.468 13.7898 18.8868 12.0077 19.7242 10.4709C20.5726 8.92454 21.7635 7.74118 23.2971 6.92091C24.8415 6.09111 26.6035 5.67627 28.5829 5.67627C30.5624 5.67627 32.3189 6.09111 33.8525 6.92091C35.3969 7.74118 36.5878 8.92454 37.4253 10.4709C38.2737 12.0077 38.6979 13.7851 38.6979 15.8029V16.7222ZM33.7383 15.7888C33.7383 13.6295 33.2923 11.9889 32.4005 10.8669C31.5086 9.74481 30.2361 9.18384 28.5829 9.18384C26.9406 9.18384 25.6735 9.7401 24.7817 10.8527C23.8898 11.9559 23.4385 13.5777 23.4276 15.718V16.7222C23.4276 18.8248 23.8736 20.456 24.7654 21.6158C25.6573 22.7756 26.9406 23.3554 28.6156 23.3554C30.2579 23.3554 31.5195 22.7991 32.4005 21.6865C33.2815 20.5645 33.7274 18.9333 33.7383 16.7929V15.7888ZM60.2327 5.95914V19.5226C60.2327 21.7761 59.4171 23.5582 57.7856 24.8687C56.1651 26.1794 53.9463 26.8347 51.1293 26.8347C48.356 26.8347 46.1535 26.1982 44.522 24.9253C42.8906 23.6524 42.0586 21.9034 42.026 19.6782V5.95914H46.9202V19.5508C46.9202 20.8992 47.2901 21.8845 48.0296 22.5068C48.7801 23.1197 49.8133 23.4261 51.1293 23.4261C53.881 23.4261 55.2787 22.1721 55.3222 19.664V5.95914H60.2327Z" fill="white"/>
<path d="M63.3105 25.7503C63.3105 25.0997 63.5607 24.5717 64.061 24.1663C64.5722 23.7608 65.2085 23.5581 65.9698 23.5581C66.742 23.5581 67.3783 23.7608 67.8786 24.1663C68.3898 24.5717 68.6454 25.0997 68.6454 25.7503C68.6454 26.3915 68.3952 26.9148 67.8949 27.3202C67.3946 27.7162 66.7529 27.9142 65.9698 27.9142C65.1976 27.9142 64.5613 27.7162 64.061 27.3202C63.5607 26.9148 63.3105 26.3915 63.3105 25.7503Z" fill="#E84D4D"/>
</svg>
