<?xml version="1.0" standalone="no"?>
<!DOCTYPE svg PUBLIC "-//W3C//DTD SVG 20010904//EN"
 "http://www.w3.org/TR/2001/REC-SVG-20010904/DTD/svg10.dtd">
<svg version="1.0" xmlns="http://www.w3.org/2000/svg"
 width="241.000000pt" height="241.000000pt" viewBox="0 0 241.000000 241.000000"
 preserveAspectRatio="xMidYMid meet">
<metadata>
Created by potrace 1.11, written by Peter Selinger 2001-2013
</metadata>
<g transform="translate(0.000000,241.000000) scale(0.100000,-0.100000)"
fill="#000000" stroke="none">
<path d="M2147 2398 c-15 -12 -22 -55 -18 -110 2 -26 39 -42 67 -29 21 9 24
17 24 69 0 76 -28 103 -73 70z"/>
<path d="M387 2310 c-47 -9 -86 -36 -112 -81 -18 -31 -20 -53 -21 -239 -1
-270 14 -339 96 -459 81 -120 208 -200 354 -225 16 -3 31 -8 34 -11 3 -3 6
-169 6 -369 1 -383 3 -396 47 -396 43 0 49 23 49 181 l0 149 230 0 230 0 0
-141 c0 -171 10 -208 70 -270 70 -73 171 -93 266 -53 62 26 98 74 180 238 59
119 86 163 109 177 60 37 135 -5 135 -76 0 -44 -164 -357 -214 -408 -140 -145
-340 -176 -512 -82 -131 73 -210 201 -218 355 -2 32 -6 62 -10 68 -10 17 -44
20 -65 5 -17 -11 -21 -25 -21 -66 0 -122 62 -266 152 -357 l58 -59 -33 4 c-50
6 -116 32 -167 65 -26 17 -54 30 -63 30 -19 0 -47 -26 -47 -44 0 -36 119 -109
220 -137 25 -6 82 -11 128 -9 125 3 170 3 257 1 149 -5 268 42 376 149 58 57
76 86 157 247 56 109 93 197 96 221 7 77 -41 157 -114 189 -49 21 -132 11
-173 -20 l-32 -24 -37 25 c-72 47 -182 37 -238 -23 -13 -14 -54 -85 -91 -158
-38 -72 -69 -127 -70 -122 -1 6 -3 168 -3 361 l-2 351 70 16 c102 24 174 63
261 142 64 58 132 189 150 290 3 17 5 123 6 236 1 224 -2 242 -58 293 -73 68
-204 42 -248 -50 -15 -31 -18 -69 -19 -243 -2 -223 -5 -239 -61 -296 -39 -39
-83 -57 -146 -61 l-58 -4 29 47 c36 59 47 109 45 194 -5 146 -102 261 -245
288 -135 25 -258 -38 -321 -164 -20 -43 -24 -64 -24 -146 0 -89 2 -100 33
-158 l33 -63 -53 5 c-68 7 -98 18 -141 57 -59 52 -67 88 -70 322 -2 191 -4
209 -23 234 -44 60 -102 85 -167 74z m73 -110 c11 -11 20 -26 21 -32 0 -7 2
-101 3 -208 2 -188 3 -197 28 -250 42 -87 102 -141 185 -166 60 -18 664 -23
728 -5 90 24 164 90 205 184 19 43 21 67 22 249 1 197 1 202 24 225 30 30 59
29 89 -1 l24 -25 -3 -213 c-2 -117 -8 -226 -14 -243 -37 -116 -127 -223 -227
-273 -63 -31 -89 -38 -170 -48 -27 -3 -55 -10 -62 -16 -10 -8 -13 -62 -13
-217 l0 -206 -230 -1 -230 0 0 201 c0 146 -3 206 -12 217 -8 10 -35 19 -68 23
-175 20 -292 100 -368 254 l-37 75 -3 225 c-3 219 -3 227 18 249 26 27 64 28
90 2z m723 -177 c59 -41 87 -101 87 -182 0 -120 -64 -199 -177 -217 -56 -9
-115 11 -161 54 -50 45 -71 103 -66 183 5 89 41 145 118 181 59 27 145 19 199
-19z m575 -1226 l23 -24 -60 -117 c-65 -129 -81 -150 -125 -173 -28 -15 -108
-14 -123 1 -4 3 29 76 73 162 83 165 102 185 158 178 17 -2 41 -14 54 -27z"/>
<path d="M1952 2208 c-16 -16 -15 -53 1 -66 13 -11 42 -15 94 -13 41 1 60 32
44 67 -9 21 -17 24 -69 24 -32 0 -63 -5 -70 -12z"/>
<path d="M2260 2201 c-26 -49 0 -75 73 -74 53 2 77 18 77 53 0 29 -23 40 -82
40 -46 0 -59 -4 -68 -19z"/>
<path d="M2146 2087 c-13 -10 -18 -26 -18 -66 1 -58 14 -81 46 -81 35 0 46 20
46 82 0 46 -4 59 -19 68 -25 13 -33 13 -55 -3z"/>
<path d="M202 458 c-7 -7 -12 -38 -12 -70 0 -52 3 -60 24 -69 33 -15 66 4 67
39 2 50 -3 87 -13 100 -13 15 -50 16 -66 0z"/>
<path d="M816 424 c-21 -21 -20 -47 2 -67 24 -22 38 -21 62 3 21 21 18 46 -8
68 -21 16 -37 15 -56 -4z"/>
<path d="M40 280 c-34 -8 -46 -33 -32 -64 10 -23 17 -26 66 -26 75 0 105 30
73 74 -13 18 -65 26 -107 16z"/>
<path d="M319 259 c-8 -16 -8 -28 0 -45 9 -21 17 -24 69 -24 62 0 82 11 82 45
0 34 -20 45 -82 45 -48 0 -59 -3 -69 -21z"/>
<path d="M202 148 c-16 -16 -16 -120 0 -136 16 -16 40 -15 62 1 26 19 26 115
0 134 -22 16 -46 17 -62 1z"/>
</g>
</svg>
