<svg width="26" height="26" viewBox="0 0 26 26" fill="none" xmlns="http://www.w3.org/2000/svg">
<path d="M17.7234 15.0833C17.8101 14.3958 17.8751 13.7083 17.8751 13C17.8751 12.2917 17.8101 11.6042 17.7234 10.9167H21.3851C21.5584 11.5833 21.6667 12.2813 21.6667 13C21.6667 13.7188 21.5584 14.4167 21.3851 15.0833H17.7234ZM15.8059 20.875C16.4559 19.7188 16.9542 18.4688 17.3009 17.1667H20.4967C19.4472 18.9045 17.782 20.2208 15.8059 20.875ZM15.5351 15.0833H10.4651C10.3567 14.3958 10.2917 13.7083 10.2917 13C10.2917 12.2917 10.3567 11.5938 10.4651 10.9167H15.5351C15.6326 11.5938 15.7084 12.2917 15.7084 13C15.7084 13.7083 15.6326 14.3958 15.5351 15.0833ZM13.0001 21.2917C12.1009 20.0417 11.3751 18.6563 10.9309 17.1667H15.0692C14.6251 18.6563 13.8992 20.0417 13.0001 21.2917ZM8.66675 8.83333H5.50341C6.54218 7.09085 8.20611 5.77238 10.1834 5.125C9.53341 6.28125 9.04592 7.53125 8.66675 8.83333ZM5.50341 17.1667H8.66675C9.04592 18.4688 9.53341 19.7188 10.1834 20.875C8.21026 20.2205 6.54867 18.9039 5.50341 17.1667ZM4.61508 15.0833C4.44175 14.4167 4.33341 13.7188 4.33341 13C4.33341 12.2813 4.44175 11.5833 4.61508 10.9167H8.27675C8.19008 11.6042 8.12508 12.2917 8.12508 13C8.12508 13.7083 8.19008 14.3958 8.27675 15.0833H4.61508ZM13.0001 4.69792C13.8992 5.94792 14.6251 7.34375 15.0692 8.83333H10.9309C11.3751 7.34375 12.1009 5.94792 13.0001 4.69792ZM20.4967 8.83333H17.3009C16.9619 7.54319 16.4598 6.29781 15.8059 5.125C17.7992 5.78125 19.4567 7.10417 20.4967 8.83333ZM13.0001 2.58333C7.00925 2.58333 2.16675 7.27083 2.16675 13C2.16675 15.7627 3.30811 18.4122 5.33976 20.3657C6.34573 21.333 7.53998 22.1003 8.85434 22.6237C10.1687 23.1472 11.5774 23.4167 13.0001 23.4167C15.8733 23.4167 18.6288 22.3192 20.6604 20.3657C22.692 18.4122 23.8334 15.7627 23.8334 13C23.8334 11.6321 23.5532 10.2775 23.0088 9.01371C22.4644 7.74991 21.6664 6.60158 20.6604 5.63431C19.6544 4.66703 18.4602 3.89974 17.1458 3.37626C15.8315 2.85277 14.4227 2.58333 13.0001 2.58333Z" fill="#F4FAFF"/>
</svg>
