<svg width="100" height="100" viewBox="0 0 100 100" fill="none" xmlns="http://www.w3.org/2000/svg">
<path d="M63.0078 48.1934L67.7051 52.8906L61.8516 58.7441C61.418 59.1777 61.418 59.6113 61.8516 60.0449L63.0801 61.2734C63.5137 61.707 63.9473 61.707 64.3809 61.2734L70.2344 55.4199L79.2676 64.4531L73.4141 70.3066C72.9805 70.7402 72.9805 71.1497 73.4141 71.5352L74.6426 72.8359C75.0762 73.2695 75.5098 73.2695 75.9434 72.8359L81.7969 66.9824L86.3496 71.5352C86.7832 71.9688 87 72.4987 87 73.125C87 73.7513 86.7832 74.3053 86.3496 74.7871L74.7871 86.3496C74.3053 86.7832 73.7513 87 73.125 87C72.4987 87 71.9688 86.7832 71.5352 86.3496L48.1934 63.0078L34.6074 76.5938C33.8366 77.3646 32.8971 77.75 31.7891 77.75C30.681 77.75 29.7415 77.3646 28.9707 76.5938L23.4785 71.0293C22.7077 70.2585 22.3223 69.3311 22.3223 68.2471C22.3223 67.1631 22.7077 66.2357 23.4785 65.4648L37.0645 51.8789L13.6504 28.4648C13.2168 28.0312 13 27.5013 13 26.875C13 26.2487 13.2168 25.7188 13.6504 25.2852L25.2129 13.6504C25.6947 13.2168 26.2487 13 26.875 13C27.5013 13 28.0312 13.2168 28.4648 13.6504L33.0176 18.2031L27.1641 24.0566C26.7305 24.4902 26.7305 24.9238 27.1641 25.3574L28.3926 26.5859C28.8262 27.0195 29.2598 27.0195 29.6934 26.5859L35.5469 20.7324L44.5801 29.7656L38.7266 35.6191C38.293 36.0527 38.293 36.4863 38.7266 36.9199L39.9551 38.1484C40.3887 38.582 40.8223 38.582 41.2559 38.1484L47.1094 32.2949L51.8066 37.0645L74.7148 14.1562C75.4857 13.3854 76.4131 13 77.4971 13C78.5811 13 79.5085 13.3854 80.2793 14.1562L85.8438 19.7207C86.6146 20.4915 87 21.4189 87 22.5029C87 23.5869 86.6146 24.5143 85.8438 25.2852L63.0078 48.1934ZM17.7695 71.3906C17.8659 71.776 18.0345 72.0892 18.2754 72.3301L27.6699 81.7246C27.9108 81.9655 28.224 82.1341 28.6094 82.2305C28.3685 82.7122 28.1758 83.0013 28.0312 83.0977L15.3125 87C14.1562 87 13.4818 86.9036 13.2891 86.7109C13.0964 86.5182 13 85.8438 13 84.6875L16.9023 71.9688C16.9987 71.8724 17.2878 71.6797 17.7695 71.3906Z" fill="white"/>
</svg>
